<svg version="1.2" xmlns="http://www.w3.org/2000/svg" viewBox="0 0 1500 117" width="1500" height="117"><style>.a{fill:#57a4fc}</style><path class="a" d="m82.4 43l-2.5-35h12.5l-2.5 35zm-18.8 0l-2.5-35h12.5l-2.5 35zm105.3 62.5l6.9-6.9v-28.1l-6.9-7h-41.9v-14h34.9v7h13.9v-13.9l-6.9-7.1h-49l-6.9 7.1v30l6.9 5h42v13.9h-34.9v-6.9h-14v14l6.9 6.9zm30.9 0v-27.9h34.9v27.9h13.9v-70h-13.9v28.1h-34.9v-28.1h-14v70zm71.8-34.9v-7l13.9-14.1h21v21.1zm0 34.9v-20.9h34.9v20.9h13.9v-70h-41.9l-20.9 21.1v48.9zm121.6 0v-70h-13.9v46.6l-34.9-46.6h-14v70h14v-46.7l34.9 46.7zm69.4 0v-14h-45.4v-13.9h41.9v-14h-41.9v-14.1h45.4v-14h-59.4v70zm9-70v70h59.4v-14h-45.4v-56zm80.4 70v-27.9h20.9l14 13.9v14h13.9v-20.9l-13.9-14 13.9-14v-21.1h-13.9v14.1l-14 14h-20.9v-28.1h-14v70zm70.8-34.9v-7l13.9-14.1h21v21.1zm0 34.9v-20.9h34.9v20.9h13.9v-70h-41.9l-20.9 21.1v48.9zm112.8-34.9v-21.1h34.9v21.1zm0 34.9v-20.9h41.9l6.9-7v-35l-6.9-7.1h-55.9v70zm71.8-34.9v-21.1h34.9v21.1zm48.8 34.9v-14l-6.9-6.9 6.9-7v-35l-6.9-7.1h-55.9v70h14v-20.9h20.9l7 6.9 7 7.1v6.9zm23-34.9v-7l13.9-14.1h21v21.1zm0 34.9v-20.9h34.9v20.9h13.9v-70h-41.9l-20.9 21.1v48.9zm72.8 0v-47.2l18.7 26.9h11.7l18.3-26.9v47.2h14v-70h-13.5l-24.8 33.9-24.4-33.9h-14v70zm72.7-70v63.1l6.9 6.9h49l6.9-6.9v-63.1h-13.9v56h-34.9v-56zm135.6 21l-20.9-21h-41.9v70h55.9l6.9-6.9zm-13.9 35h-34.9v-42h20.9l14 14zm36.9 14v-70h-14v70zm45.5 0v-56h24.3v-14h-62.8v14h24.5v56zm45.3 0v-27.9h34.9v27.9h13.9v-70h-13.9v28.1h-34.9v-28.1h-14v70zm71.8-34.9v-7l13.9-14.1h21v21.1zm0 34.9v-20.9h34.9v20.9h13.9v-70h-41.9l-20.9 21.1v48.9zm90.7-62.5l-2.5-35h12.5l-2.5 35zm-18.8 0l-2.5-35h12.5l-2.5 35z"/></svg>
